<?xml version="1.0" encoding="UTF-8"?>
<!DOCTYPE svg PUBLIC "-//W3C//DTD SVG 1.1//EN" "http://www.w3.org/Graphics/SVG/1.1/DTD/svg11.dtd">
<svg xmlns="http://www.w3.org/2000/svg" version="1.1" width="512px" height="512px" style="shape-rendering:geometricPrecision; text-rendering:geometricPrecision; image-rendering:optimizeQuality; fill-rule:evenodd; clip-rule:evenodd" xmlns:xlink="http://www.w3.org/1999/xlink">
<g><path style="opacity:0.986" fill="#fff" d="M 244.5,58.5 C 294.913,56.694 339.746,71.3607 379,102.5C 377.785,94.2547 377.452,85.9214 378,77.5C 386.152,61.4141 398.319,57.5808 414.5,66C 419.004,69.8401 421.838,74.6734 423,80.5C 428.547,115.826 434.047,151.159 439.5,186.5C 438.539,200.464 431.206,208.464 417.5,210.5C 385.527,207.136 353.527,203.969 321.5,201C 306.801,197.8 300.301,188.634 302,173.5C 304.091,163.743 309.925,157.577 319.5,155C 326.888,154.941 334.221,155.274 341.5,156C 301.197,123.526 256.531,115.859 207.5,133C 166.108,150.724 139.274,181.224 127,224.5C 106.62,218.446 86.1196,212.78 65.5,207.5C 82.6077,141.551 122.941,96.0511 186.5,71C 205.434,64.3152 224.768,60.1485 244.5,58.5 Z"/></g>
<g><path style="opacity:0.986" fill="#fff" d="M 383.5,286.5 C 404.063,292.475 424.73,298.141 445.5,303.5C 429.402,365.104 392.402,409.271 334.5,436C 271.378,461.323 210.378,456.99 151.5,423C 144.718,418.552 138.218,413.719 132,408.5C 132.582,414.266 133.082,420.1 133.5,426C 133.651,436.357 128.985,443.691 119.5,448C 104.03,451.849 93.5303,446.349 88,431.5C 82.5466,395.826 77.0466,360.159 71.5,324.5C 72.4436,310.24 79.9436,302.24 94,300.5C 125.806,303.897 157.64,307.064 189.5,310C 200.186,311.684 206.686,317.851 209,328.5C 210.585,342.514 204.752,351.681 191.5,356C 184.112,356.059 176.779,355.726 169.5,355C 209.818,387.476 254.485,395.143 303.5,378C 344.955,360.382 371.621,329.882 383.5,286.5 Z"/></g>
</svg>
